<svg width="906" height="146" viewBox="0 0 906 146" fill="none" xmlns="http://www.w3.org/2000/svg">
<path d="M0.000781272 56.5469C0.000781272 46.5902 2.22411 37.6969 6.67078 29.8669C11.2141 21.9402 17.3524 15.8019 25.0858 11.4519C32.9158 7.00521 41.6641 4.78187 51.3308 4.78187C62.6408 4.78187 72.5491 7.68187 81.0558 13.4819C89.5625 19.2819 95.5075 27.3052 98.8908 37.5519H75.5458C73.2258 32.7185 69.9391 29.0935 65.6858 26.6769C61.5291 24.2602 56.6958 23.0519 51.1858 23.0519C45.2891 23.0519 40.0208 24.4535 35.3808 27.2569C30.8374 29.9635 27.2608 33.8302 24.6508 38.8569C22.1374 43.8835 20.8808 49.7802 20.8808 56.5469C20.8808 63.2169 22.1374 69.1135 24.6508 74.2369C27.2608 79.2635 30.8374 83.1785 35.3808 85.9819C40.0208 88.6885 45.2891 90.0419 51.1858 90.0419C56.6958 90.0419 61.5291 88.8335 65.6858 86.4169C69.9391 83.9035 73.2258 80.2302 75.5458 75.3969H98.8908C95.5075 85.7402 89.5625 93.8119 81.0558 99.6119C72.6458 105.315 62.7375 108.167 51.3308 108.167C41.6641 108.167 32.9158 105.992 25.0858 101.642C17.3524 97.1952 11.2141 91.0569 6.67078 83.2269C2.22411 75.3969 0.000781272 66.5035 0.000781272 56.5469ZM151.9 108.602C144.166 108.602 137.206 106.91 131.02 103.527C124.833 100.047 119.951 95.1652 116.375 88.8819C112.895 82.5985 111.155 75.3485 111.155 67.1319C111.155 58.9152 112.943 51.6652 116.52 45.3819C120.193 39.0985 125.171 34.2652 131.455 30.8819C137.738 27.4019 144.746 25.6619 152.48 25.6619C160.213 25.6619 167.221 27.4019 173.505 30.8819C179.788 34.2652 184.718 39.0985 188.295 45.3819C191.968 51.6652 193.805 58.9152 193.805 67.1319C193.805 75.3485 191.92 82.5985 188.15 88.8819C184.476 95.1652 179.45 100.047 173.07 103.527C166.786 106.91 159.73 108.602 151.9 108.602ZM151.9 90.9119C155.573 90.9119 159.005 90.0419 162.195 88.3019C165.481 86.4652 168.091 83.7585 170.025 80.1819C171.958 76.6052 172.925 72.2552 172.925 67.1319C172.925 59.4952 170.895 53.6469 166.835 49.5869C162.871 45.4302 157.99 43.3519 152.19 43.3519C146.39 43.3519 141.508 45.4302 137.545 49.5869C133.678 53.6469 131.745 59.4952 131.745 67.1319C131.745 74.7685 133.63 80.6652 137.4 84.8219C141.266 88.8819 146.1 90.9119 151.9 90.9119ZM253.21 25.8069C262.78 25.8069 270.514 28.8519 276.41 34.9419C282.307 40.9352 285.255 49.3452 285.255 60.1719V107.297H264.955V62.9269C264.955 56.5469 263.36 51.6652 260.17 48.2819C256.98 44.8019 252.63 43.0619 247.12 43.0619C241.514 43.0619 237.067 44.8019 233.78 48.2819C230.59 51.6652 228.995 56.5469 228.995 62.9269V107.297H208.695V26.9669H228.995V36.9719C231.702 33.4919 235.134 30.7852 239.29 28.8519C243.544 26.8219 248.184 25.8069 253.21 25.8069ZM328.195 43.6419V82.5019C328.195 85.2085 328.823 87.1902 330.08 88.4469C331.433 89.6069 333.656 90.1869 336.75 90.1869H346.175V107.297H333.415C316.305 107.297 307.75 98.9835 307.75 82.3569V43.6419H298.18V26.9669H307.75V7.10187H328.195V26.9669H346.175V43.6419H328.195ZM435.451 65.3919C435.451 68.2919 435.257 70.9019 434.871 73.2219H376.146C376.629 79.0219 378.659 83.5652 382.236 86.8519C385.812 90.1385 390.211 91.7819 395.431 91.7819C402.971 91.7819 408.336 88.5435 411.526 82.0669H433.421C431.101 89.8002 426.654 96.1802 420.081 101.207C413.507 106.137 405.436 108.602 395.866 108.602C388.132 108.602 381.172 106.91 374.986 103.527C368.896 100.047 364.111 95.1652 360.631 88.8819C357.247 82.5985 355.556 75.3485 355.556 67.1319C355.556 58.8185 357.247 51.5202 360.631 45.2369C364.014 38.9535 368.751 34.1202 374.841 30.7369C380.931 27.3535 387.939 25.6619 395.866 25.6619C403.502 25.6619 410.317 27.3052 416.311 30.5919C422.401 33.8785 427.089 38.5669 430.376 44.6569C433.759 50.6502 435.451 57.5619 435.451 65.3919ZM414.426 59.5919C414.329 54.3719 412.444 50.2152 408.771 47.1219C405.097 43.9319 400.602 42.3369 395.286 42.3369C390.259 42.3369 386.006 43.8835 382.526 46.9769C379.142 49.9735 377.064 54.1785 376.291 59.5919H414.426ZM550.028 25.8069C559.888 25.8069 567.814 28.8519 573.808 34.9419C579.898 40.9352 582.943 49.3452 582.943 60.1719V107.297H562.643V62.9269C562.643 56.6435 561.048 51.8585 557.858 48.5719C554.668 45.1885 550.318 43.4969 544.808 43.4969C539.298 43.4969 534.899 45.1885 531.613 48.5719C528.423 51.8585 526.828 56.6435 526.828 62.9269V107.297H506.528V62.9269C506.528 56.6435 504.933 51.8585 501.743 48.5719C498.553 45.1885 494.203 43.4969 488.693 43.4969C483.086 43.4969 478.639 45.1885 475.353 48.5719C472.163 51.8585 470.568 56.6435 470.568 62.9269V107.297H450.268V26.9669H470.568V36.6819C473.178 33.2985 476.513 30.6402 480.573 28.7069C484.729 26.7735 489.273 25.8069 494.203 25.8069C500.486 25.8069 506.093 27.1602 511.023 29.8669C515.953 32.4769 519.771 36.2469 522.478 41.1769C525.088 36.5369 528.858 32.8152 533.788 30.0119C538.814 27.2085 544.228 25.8069 550.028 25.8069ZM676.011 37.4069C676.011 42.8202 674.706 47.8952 672.096 52.6319C669.583 57.3685 665.571 61.1869 660.061 64.0869C654.648 66.9869 647.785 68.4369 639.471 68.4369H622.506V107.297H602.206V6.08687H639.471C647.301 6.08687 653.971 7.44021 659.481 10.1469C664.991 12.8535 669.1 16.5752 671.806 21.3119C674.61 26.0485 676.011 31.4135 676.011 37.4069ZM638.601 52.0519C644.208 52.0519 648.365 50.7952 651.071 48.2819C653.778 45.6719 655.131 42.0469 655.131 37.4069C655.131 27.5469 649.621 22.6169 638.601 22.6169H622.506V52.0519H638.601ZM710.724 -0.00312638V107.297H690.424V-0.00312638H710.724ZM725.56 66.8419C725.56 58.7219 727.155 51.5202 730.345 45.2369C733.632 38.9535 738.03 34.1202 743.54 30.7369C749.147 27.3535 755.382 25.6619 762.245 25.6619C768.239 25.6619 773.459 26.8702 777.905 29.2869C782.449 31.7035 786.074 34.7485 788.78 38.4219V26.9669H809.225V107.297H788.78V95.5519C786.17 99.3219 782.545 102.464 777.905 104.977C773.362 107.394 768.094 108.602 762.1 108.602C755.334 108.602 749.147 106.862 743.54 103.382C738.03 99.9019 733.632 95.0202 730.345 88.7369C727.155 82.3569 725.56 75.0585 725.56 66.8419ZM788.78 67.1319C788.78 62.2019 787.814 57.9969 785.88 54.5169C783.947 50.9402 781.337 48.2335 778.05 46.3969C774.764 44.4635 771.235 43.4969 767.465 43.4969C763.695 43.4969 760.215 44.4152 757.025 46.2519C753.835 48.0885 751.225 50.7952 749.195 54.3719C747.262 57.8519 746.295 62.0085 746.295 66.8419C746.295 71.6752 747.262 75.9285 749.195 79.6019C751.225 83.1785 753.835 85.9335 757.025 87.8669C760.312 89.8002 763.792 90.7669 767.465 90.7669C771.235 90.7669 774.764 89.8485 778.05 88.0119C781.337 86.0785 783.947 83.3719 785.88 79.8919C787.814 76.3152 788.78 72.0619 788.78 67.1319ZM905.902 26.9669L856.167 145.287H834.562L851.962 105.267L819.772 26.9669H842.537L863.272 83.0819L884.297 26.9669H905.902Z" fill="black"/>
</svg>
